
<svg id="Layer_1" data-name="Layer 1" xmlns="http://www.w3.org/2000/svg" xmlns:xlink="http://www.w3.org/1999/xlink" viewBox="0 0 1579.96 2000"><defs><style>.cls-1{fill:url(#linear-gradient);}.cls-2{fill:url(#linear-gradient-2);}.cls-3{fill:url(#linear-gradient-3);}.cls-4{fill:url(#linear-gradient-4);}</style><linearGradient id="linear-gradient" x1="598.63" y1="102.98" x2="1458.67" y2="1585.17" gradientUnits="userSpaceOnUse"><stop offset="0" stop-color="#ef5266"/><stop offset="1" stop-color="#ffd528"/></linearGradient><linearGradient id="linear-gradient-2" x1="864.65" y1="1744.86" x2="-69.68" y2="38.15" gradientUnits="userSpaceOnUse"><stop offset="0" stop-color="#333"/><stop offset="0.8" stop-color="#727474"/></linearGradient><linearGradient id="linear-gradient-3" x1="1180.22" y1="1197.66" x2="417.67" y2="987.01" gradientUnits="userSpaceOnUse"><stop offset="0" stop-color="#727474"/><stop offset="1" stop-color="#333"/></linearGradient><linearGradient id="linear-gradient-4" x1="401.98" y1="654.34" x2="1161.42" y2="654.34" gradientUnits="userSpaceOnUse"><stop offset="0" stop-color="#ce1e4d"/><stop offset="1" stop-color="#f69055"/></linearGradient></defs><title>BoG_Logo_RGB_Color</title><path class="cls-1" d="M1348,2000,975.45,1849.2C1180.14,1344,1186.51,1117,1174.88,910.57a546.63,546.63,0,0,0-13.39-94.05c-49.26-250.76-199.11-377.5-402.2-402-147.78-18-264.47,15.14-357.25,68.7V208.35C516,144.91,645.3,111,780.17,111c205.64,0,398.37,74.29,542.64,209.15,152.72,142.68,240.24,339.07,253.31,567.67C1593,1185.24,1560.66,1475.05,1348,2000Z"/><path class="cls-2" d="M1145.54,1323c-19,90.07-47.82,194-91.18,318a783.92,783.92,0,0,1-266.22,46.23C353.58,1687.23,0,1333.65,0,899.09V0H402V899.25a386.36,386.36,0,0,0,12.75,98.52h-.16c50.7,211.22,203.26,361.71,391,384.5C944.52,1399.17,1055.63,1371,1145.54,1323Z"/><path class="cls-3" d="M1145.52,1323.29c-89.91,48-201,76.2-339.87,59.3-187.79-22.79-340.35-173.28-391-384.5,43.68,165.31,194.64,287.58,373.51,287.58,211.86,0,384.34-171.37,386.09-382.75.32,2.39.48,4.94.64,7.33C1181.55,1026.14,1182.34,1148.57,1145.52,1323.29Z"/><path class="cls-4" d="M1161.42,816.46c-19.29-81.78-57.55-150.8-113-202.77-69.67-65-164.83-100.75-268.29-100.75-212,0-378.13,169.61-378.13,386.25V483.13c92.77-53.57,209.47-86.72,357.24-68.71C962.31,439,1112.16,565.7,1161.42,816.46Z"/></svg>